<?xml version="1.0" encoding="utf-8"?>
<!-- Generator: Adobe Illustrator 23.1.0, SVG Export Plug-In . SVG Version: 6.00 Build 0)  -->
<svg version="1.1" id="Capa_1" xmlns="http://www.w3.org/2000/svg" xmlns:xlink="http://www.w3.org/1999/xlink" x="0px" y="0px"
	 viewBox="0 0 512 512" style="enable-background:new 0 0 512 512;" xml:space="preserve">
<style type="text/css">
	.st0{fill:none;stroke:#000000;stroke-width:25;stroke-miterlimit:10;}
	.st1{stroke:#000000;stroke-width:15;stroke-miterlimit:10;}
	.st2{stroke:#000000;stroke-width:10;stroke-miterlimit:10;}
</style>
<path class="st0" d="M406,490.5H106c0,0-39.3-11.4-41.3-71.4c-2-60,0-255.6,0-255.6h381.4v255.6C446.1,419.1,440.2,490.5,406,490.5z
	"/>
<g>
	<g>
		<path class="st1" d="M263.7,278.1H116.4c-2.8,0-5.1,2.7-5.1,6.1v124.1c0,3.4,2.3,6.1,5.1,6.1h147.3c2.8,0,5.1-2.7,5.1-6.1V284.2
			C268.8,280.8,266.5,278.1,263.7,278.1z M258.6,402.2H121.5V290.3h137.1V402.2z"/>
	</g>
</g>
<path class="st0" d="M308.7,490.5V302.8c0,0,3.1-22.5,20.4-22.5c17.4,0,55.7,0,55.7,0S401,281,401,304.1s0,186.4,0,186.4"/>
<g>
	<g>
		<g>
			<path class="st2" d="M497,159.6l-56.2-95.9c-4-6.7-11.3-10.9-19.3-10.9H90.5c-8,0-15.4,4.2-19.3,10.9L15,159.6
				c-0.6,1-0.9,2.2-0.9,3.4c0,22.6,12.1,42.5,30.3,53.9c0.4,0.2,0.7,0.3,1.1,0.5c0.6,0.4,1.3,0.7,1.9,1c1.2,0.6,2.5,1.2,3.7,1.9
				c1.2,0.5,2.4,1.1,3.6,1.6c0.7,0.3,1.4,0.6,2.1,0.9c0.4,0.2,0.8,0.3,1.2,0.5c0.1,0,0.1,0.1,0.2,0.1c0.2,0.1,0.4,0.2,0.6,0.2
				c0,0,0.1,0,0.1,0.1c6.6,2.2,13.7,3.4,21.1,3.4c25.6,0,47.8-14.3,58.7-35.2c10.9,20.9,33.1,35.2,58.7,35.2
				c25.6,0,47.8-14.3,58.7-35.2c10.9,20.9,33.1,35.2,58.7,35.2c25.6,0,47.8-14.3,58.7-35.2c10.9,20.9,33.1,35.2,58.7,35.2
				c7.5,0,14.6-1.2,21.3-3.5v0.4c5.1-1.2,10.1-2.6,13.9-6.2c0.1-0.1,0.2-0.1,0.2-0.2V217c18.2-11.4,30.3-31.3,30.3-54
				C497.9,161.9,497.6,160.7,497,159.6z M197.3,213.4c-26.1,0-47.7-18.9-51.1-43.4h102.3C244.9,194.5,223.3,213.4,197.3,213.4z
				 M314.7,213.4c-26.1,0-47.7-18.9-51.1-43.4h102.3C362.4,194.5,340.8,213.4,314.7,213.4z M432.1,213.4
				c-26.1,0-47.7-18.9-51.1-43.4h49.2c3.9,0,7.1-3.1,7.1-6.9c0-3.8-3.2-6.9-7.1-6.9H81.8c-3.9,0-3.9,13.8,0,13.8H131
				c-3.5,24.5-25.1,43.4-51.1,43.4c-26.1,0-47.7-18.9-51.1-43.4h22.7c3.9,0,3.9-13.8,0-13.8H33.4l50.2-85.6c1.4-2.4,4.1-4,7-4h330.9
				c2.9,0,5.6,1.5,7,4l50.2,85.6h-18.1c-3.9,0-7.1,3.1-7.1,6.9c0,3.8,3.2,6.9,7.1,6.9h22.7C479.8,194.5,458.2,213.4,432.1,213.4z"/>
		</g>
	</g>
	<path class="st2" d="M46.6,163.1c47.3,0,47.3,0,47.3,0"/>
	<path class="st2" d="M418.9,163.1c47.3,0,47.3,0,47.3,0"/>
</g>
</svg>
