<?xml version="1.0" encoding="utf-8"?>
<!-- Generator: Adobe Illustrator 23.1.0, SVG Export Plug-In . SVG Version: 6.00 Build 0)  -->
<svg version="1.1" id="Capa_1" xmlns="http://www.w3.org/2000/svg" xmlns:xlink="http://www.w3.org/1999/xlink" x="0px" y="0px"
	 viewBox="0 0 512 512" style="enable-background:new 0 0 512 512;" xml:space="preserve">
<style type="text/css">
	.st0{fill:none;stroke:#000000;stroke-width:25;stroke-miterlimit:10;}
	.st1{fill:none;stroke:#000000;stroke-width:20;stroke-miterlimit:10;}
	.st2{stroke:#000000;stroke-width:9;stroke-miterlimit:10;}
</style>
<path class="st0" d="M208,284.9l-54.4,82.9c0,0-8.6,8.8-9.6,30.8c-0.9,22,0,71.2,0,71.2s1.9,27.2,50.6,27.2s119.3,0,119.3,0
	s24.9-4.4,25.8-27.9c0.9-23.5,0-69.7,0-69.7s-5.7-18.3-14.3-29.4c-8.6-11-51.6-85.1-51.6-85.1"/>
<path class="st0" d="M285.2,284.9h-86.5c-8.2,0-14.9-6.7-14.9-14.9l0,0c0-8.2,6.7-14.9,14.9-14.9h86.5c8.2,0,14.9,6.7,14.9,14.9l0,0
	C300,278.2,293.3,284.9,285.2,284.9z"/>
<path class="st0" d="M207.6,255.2l-18.4-43.3c0,0-6.2-17.2,10.3-18.3c16.5-1.1,66.8,0,66.8,0s28.9-2,20,15.2s-16,46.4-16,46.4"/>
<line class="st1" x1="255.3" y1="193.4" x2="245.1" y2="225.4"/>
<line class="st1" x1="231.6" y1="284.9" x2="219.5" y2="341.4"/>
<line class="st1" x1="250.2" y1="284.9" x2="257.7" y2="321.2"/>
<path class="st0" d="M325,491.5c3.6,2.2,7.9,2.9,11.5,3.7c41.7,3.6,82.6,2.2,123.6,0.7c6.5-2.2,12.2-7.2,15.1-12.9
	c1.4-3.6,2.2-7.2,2.9-10.8c0.7-18.7,0.7-36.6-0.7-55.3c-0.7-8.6-3.6-15.8-8.6-23c-17.2-26.6-31.6-51.7-47.3-76.9"/>
<path class="st0" d="M365.5,317c-9.4,14.4-18.8,28.7-28.3,43.1c-2.7,4.1-5.4,8.2-8,12.3"/>
<path class="st0" d="M145.2,411.8c-6.7-15.8-13.4-31.6-20-47.5c-1.9-4.5-3.8-9-5.7-13.5"/>
<path class="st0" d="M431,317h-73.4c-7,0-12.6-6.8-12.6-15.1l0,0c0-8.3,5.7-15.1,12.6-15.1H431c7,0,12.6,6.8,12.6,15.1l0,0
	C443.6,310.2,438,317,431,317z"/>
<path class="st0" d="M365.1,287l-15.6-43.7c0,0-5.2-17.5,8.7-18.6c14-1.1,56.7,0,56.7,0s24.5-2.1,17,15.4
	c-7.5,17.5-13.6,46.9-13.6,46.9"/>
<line class="st1" x1="405.6" y1="224.5" x2="397" y2="256.8"/>
<line class="st1" x1="385.6" y1="317" x2="375.2" y2="364.9"/>
<line class="st1" x1="401.3" y1="317" x2="407.6" y2="347.8"/>
<path class="st0" d="M73.5,354.5c-11.5,18.5-22.1,37-34.8,56.6c-3.7,5.3-5.8,10.6-6.3,16.9c-1.1,13.7-1.1,27-0.5,40.7
	c0.5,2.6,1.1,5.3,2.1,7.9c2.1,4.2,6.3,7.9,11.1,9.5c30.1,1.1,60.3,2.1,90.9-0.5c2.6-0.5,5.8-1.1,8.5-2.7"/>
<path class="st0" d="M57.1,340.4L57.1,340.4c0-7.8,4.2-14.1,9.3-14.1h54c5.1,0,9.3,6.3,9.3,14.1l0,0c0,7.8-4.2,14.1-9.3,14.1h-54
	C61.3,354.5,57.1,348.2,57.1,340.4z"/>
<path class="st0" d="M75.7,326.4c0,0-4.5-27.5-10-43.8s12.5-14.4,12.5-14.4s31.5-1,41.8,0c10.3,1,6.4,17.4,6.4,17.4l-11.5,40.9"/>
<line class="st1" x1="99.7" y1="386" x2="92.1" y2="350.7"/>
<g>
	<g>
		<path class="st2" d="M336.1,51.1c-2.4-2-5.7-2.5-8.6-1.1l-43.1,21L244,24.3c-1.5-1.7-3.7-2.7-6-2.7s-4.5,1-6,2.7L191.6,71
			l-43.1-21c-2.8-1.4-6.2-0.9-8.6,1.1s-3.3,5.3-2.4,8.3l29.9,98.5c1,3.3,4.1,5.6,7.5,5.6H301c3.5,0,6.5-2.3,7.5-5.6l29.9-98.5
			C339.4,56.4,338.5,53.1,336.1,51.1z M295.2,147.7H180.8l-23-75.6l32.3,15.7c3.2,1.6,7.1,0.8,9.4-1.9L238,41.5l38.5,44.3
			c2.3,2.7,6.2,3.5,9.4,1.9l32.3-15.7L295.2,147.7z"/>
	</g>
</g>
</svg>
