<?xml version="1.0" encoding="utf-8"?>
<!-- Generator: Adobe Illustrator 23.1.0, SVG Export Plug-In . SVG Version: 6.00 Build 0)  -->
<svg version="1.1" id="Capa_1" xmlns="http://www.w3.org/2000/svg" xmlns:xlink="http://www.w3.org/1999/xlink" x="0px" y="0px"
	 viewBox="0 0 512 512" style="enable-background:new 0 0 512 512;" xml:space="preserve">
<g>
	<g>
		<g>
			<path d="M458.9,105.2c-4.7-28.7-31.7-48.1-60.4-43.4c-20.4,3.3-37,18.3-42.3,38.2l-45.5-0.4l-0.3,26.3l45.8,0.3
				c4.8,19.1,19.8,33.8,39,38.3l2.5,97.4c-25.6,7.2-41.7,32.4-37.6,58.6l0,0.2l-143.4,63.3c-10.3-13-26-20.3-42.6-19.9l-60.3-208
				c11.8-7,20.4-18.4,24-31.7l41.2,0.3l0.2-26.3l-41.4-0.3c-7-28.1-35.5-45.3-63.6-38.3c-28.1,7-45.3,35.5-38.3,63.6
				c6,24,27.9,40.6,52.6,39.8l60.3,208c-25,14.8-33.3,47.1-18.5,72.1c14.8,25,47.1,33.3,72.1,18.5c18.6-11,28.6-32.3,25.1-53.6
				l0-0.2L371,344.8c17.9,22.8,50.9,26.7,73.7,8.8c22.8-17.9,26.7-50.9,8.8-73.7c-7.4-9.4-17.8-16-29.5-18.7l-2.5-97.4
				C446.9,156.6,463,131.4,458.9,105.2z M91.1,137.1c-14.3,2.3-27.8-7.5-30.1-21.8c-2.3-14.3,7.5-27.8,21.8-30.1
				c14.3-2.3,27.8,7.5,30.1,21.8S105.5,134.8,91.1,137.1z M179.7,442.6c-14.3,2.3-27.8-7.5-30.1-21.8c-2.3-14.3,7.5-27.8,21.8-30.1
				s27.8,7.5,30.1,21.8C203.9,426.8,194.1,440.3,179.7,442.6z M438,308.3c2.3,14.3-7.5,27.8-21.8,30.1c-14.3,2.3-27.8-7.5-30.1-21.8
				s7.5-27.8,21.8-30.1S435.7,293.9,438,308.3z M381,117.6c-2.3-14.3,7.5-27.8,21.8-30.1c14.3-2.3,27.8,7.5,30.1,21.8
				s-7.5,27.8-21.8,30.1C396.7,141.7,383.3,131.9,381,117.6z"/>
			<rect x="258" y="99.3" transform="matrix(7.383666e-03 -1 1 7.383666e-03 156.6254 382.7532)" width="26.3" height="26.3"/>
			<rect x="205.3" y="98.9" transform="matrix(7.597403e-03 -1 1 7.597403e-03 104.6712 329.6688)" width="26.3" height="26.3"/>
		</g>
	</g>
</g>
</svg>
