<?xml version="1.0" encoding="iso-8859-1"?>
<!-- Generator: Adobe Illustrator 19.0.0, SVG Export Plug-In . SVG Version: 6.00 Build 0)  -->
<svg version="1.1" id="Capa_1" xmlns="http://www.w3.org/2000/svg" xmlns:xlink="http://www.w3.org/1999/xlink" x="0px" y="0px"
	 viewBox="0 0 480 480" style="enable-background:new 0 0 480 480;" xml:space="preserve">
<g>
	<g>
		<path d="M365.233,354.108c-3.641-6.274-10.354-10.127-17.608-10.108c-0.57,0.001-1.138,0.061-1.695,0.18l-143.869,31.186
			l-45.209-30.03c-1.313-0.872-2.854-1.336-4.43-1.336H112c0.001-4.417-3.579-7.999-7.996-8c-0.001,0-0.003,0-0.004,0H64
			c-4.417-0.001-7.999,3.579-8,7.996c0,0.001,0,0.003,0,0.004v96c-0.001,4.417,3.579,7.999,7.996,8c0.001,0,0.003,0,0.004,0h40
			c4.417,0.001,7.999-3.579,8-7.996c0-0.001,0-0.003,0-0.004h14.203l70.523,39c2.559,1.415,5.686,1.323,8.156-0.242l152.984-96.906
			C367.562,376.224,370.86,363.803,365.233,354.108z M96,432H72v-80h24V432z M349.57,368.176l-149.242,94.531L132.141,425
			c-1.186-0.655-2.52-1-3.875-1H112v-64h38.008l52.625,34.953c5.495,3.632,7.005,11.032,3.373,16.527
			c-0.134,0.202-0.274,0.401-0.419,0.594c-3.856,5.096-11.011,6.314-16.336,2.781l-32.398-21.519l-8.86,13.328l32.399,21.52
			c12.703,8.703,30.056,5.461,38.759-7.242c6.815-9.946,6.464-23.147-0.87-32.717l130.017-28.186c1.73,0.198,3.147,1.464,3.539,3.16
			C352.403,365.189,351.444,367.297,349.57,368.176z"/>
	</g>
</g>
<g>
	<g>
		<path d="M272,0c-4.417-0.001-7.999,3.579-8,7.996c0,0.001,0,0.003,0,0.004v144c-0.001,4.417,3.579,7.999,7.996,8
			c0.001,0,0.003,0,0.004,0h144c4.417,0.001,7.999-3.579,8-7.996c0-0.001,0-0.003,0-0.004C423.905,68.092,355.908,0.095,272,0z
			 M280,144V16.234C348.774,20.376,403.624,75.226,407.766,144H280z"/>
	</g>
</g>
<g>
	<g>
		<path d="M304,40c-4.417-0.001-7.999,3.579-8,7.996c0,0.001,0,0.003,0,0.004v72c-0.001,4.417,3.579,7.999,7.996,8
			c0.001,0,0.003,0,0.004,0h72c4.417,0.001,7.999-3.579,8-7.996c0-0.001,0-0.003,0-0.004C383.949,75.838,348.162,40.051,304,40z
			 M312,112V56.496c28.984,3.698,51.804,26.52,55.5,55.504H312z"/>
	</g>
</g>
<g>
	<g>
		<path d="M384.004,176c-0.001,0-0.003,0-0.004,0H248V40c0.001-4.417-3.579-7.999-7.996-8c-0.001,0-0.003,0-0.004,0
			c-83.947,0-152,68.053-152,152s68.053,152,152,152s152-68.053,152-152C392.001,179.583,388.421,176.001,384.004,176z M240,320
			c-75.111,0-136-60.89-136-136.001c0-72.003,56.121-131.529,128-135.764V184c-0.001,4.417,3.579,7.999,7.996,8
			c0.001,0,0.003,0,0.004,0h135.766C371.445,263.84,311.969,319.914,240,320z"/>
	</g>
</g>
<g>
</g>
<g>
</g>
<g>
</g>
<g>
</g>
<g>
</g>
<g>
</g>
<g>
</g>
<g>
</g>
<g>
</g>
<g>
</g>
<g>
</g>
<g>
</g>
<g>
</g>
<g>
</g>
<g>
</g>
</svg>
