<?xml version="1.0" encoding="utf-8"?>
<!-- Generator: Adobe Illustrator 23.1.0, SVG Export Plug-In . SVG Version: 6.00 Build 0)  -->
<svg version="1.1" id="Capa_1" xmlns="http://www.w3.org/2000/svg" xmlns:xlink="http://www.w3.org/1999/xlink" x="0px" y="0px"
	 viewBox="0 0 512 512" style="enable-background:new 0 0 512 512;" xml:space="preserve">
<path d="M493.7,298.7l-55.9-119.7l24.1,6.9c5.3,1.5,10.8-1.5,12.3-6.8c1.5-5.3-1.5-10.8-6.8-12.3l-167.8-48.1c0-0.7,0.1-1.4,0.1-2.2
	c0-19.9-13.4-37.3-32.7-42.3c-19.3-5-39.5,3.6-49.2,21L50,46.9c-5.3-1.5-10.8,1.5-12.3,6.8c-1.5,5.3,1.5,10.8,6.8,12.3l33.1,9.5
	L17.7,204c-4,1.4-6.7,5.2-6.7,9.4c0,32.4,19.5,61.6,49.5,74c29.9,12.4,64.4,5.5,87.3-17.5c15.2-14.9,23.8-35.2,23.9-56.5
	c0-4.5-3-8.4-7.3-9.6L108.6,84.5l103.7,29.7c0,0.7-0.1,1.4-0.1,2.2c0,20.3,14,37.9,33.8,42.6v197.7h-27.6c-22,0-40.3,17.7-40.3,39.7
	v5.8c-18.5,3.9-31.8,20.2-31.9,39.1v14c0.2,5.6,4.7,10.1,10.4,10.2h198.8c5.6-0.1,10.2-4.6,10.4-10.2v-14
	c-0.1-18.9-13.4-35.2-31.9-39.1v-5.8c0-22-18.3-39.7-40.3-39.7H266V159c12-2.8,22.2-10.5,28.2-21.3l113,32.4l-60.1,128.7
	c-4,1.4-6.7,5.2-6.7,9.4c0,32.4,19.5,61.6,49.5,74c29.9,12.4,64.4,5.5,87.3-17.5c15.2-14.9,23.8-35.2,23.9-56.5
	C501,303.8,498,299.9,493.7,298.7z M91.1,93.6L142.1,203H40L91.1,93.6z M91.1,273c-29.4,0.2-54.5-21.1-59.3-50.1h119
	C145.7,251.9,120.5,273.1,91.1,273z M345.8,441.3v4.2H166.2v-4.2c0-11,9.4-19.7,20.4-19.7h138.9
	C336.5,421.6,345.8,430.3,345.8,441.3z M313.9,396.4v5.2H198.1v-5.2c0-11,9.4-19.7,20.4-19.7h75.1
	C304.5,376.7,313.9,385.4,313.9,396.4z M256,140.2c-10.1,0-19.2-6.4-22.5-16s-0.2-20.2,7.8-26.5c8-6.3,19.1-6.8,27.6-1.3
	c8.5,5.5,12.7,15.8,10.3,25.6c-0.3,0.6-0.4,1.3-0.6,1.9C275.3,133.6,266.2,140.2,256,140.2z M471.5,297.8H369.4l51.1-109.4
	L471.5,297.8z M420.4,367.9c-29.4,0.2-54.5-21.1-59.3-50.1h119C475.1,346.8,449.9,367.9,420.4,367.9z"/>
</svg>
