<?xml version="1.0" encoding="utf-8"?>
<!-- Generator: Adobe Illustrator 23.1.0, SVG Export Plug-In . SVG Version: 6.00 Build 0)  -->
<svg version="1.1" id="Capa_1" xmlns="http://www.w3.org/2000/svg" xmlns:xlink="http://www.w3.org/1999/xlink" x="0px" y="0px"
	 viewBox="0 0 512 512" style="enable-background:new 0 0 512 512;" xml:space="preserve">
<style type="text/css">
	.st0{fill:none;stroke:#000000;stroke-width:25;stroke-miterlimit:10;}
	.st1{fill:none;stroke:#000000;stroke-width:20;stroke-miterlimit:10;}
</style>
<path class="st0" d="M113.1,194.3L37.4,309.7c0,0-12,12.3-13.3,42.9s0,99.1,0,99.1s2.7,37.8,70.4,37.8s166.1,0,166.1,0
	s34.6-6.1,35.9-38.8s0-97,0-97s-8-25.5-19.9-40.9c-12-15.3-71.8-118.5-71.8-118.5"/>
<path class="st0" d="M220.5,194.3H100.1c-11.4,0-20.7-9.3-20.7-20.7v0c0-11.4,9.3-20.7,20.7-20.7h120.4c11.4,0,20.7,9.3,20.7,20.7v0
	C241.2,185,231.9,194.3,220.5,194.3z"/>
<path class="st0" d="M112.5,153L86.9,92.7c0,0-8.6-24,14.3-25.5s93,0,93,0s40.2-2.8,27.9,21.2c-12.3,24-22.3,64.6-22.3,64.6"/>
<line class="st1" x1="178.9" y1="67" x2="164.8" y2="111.5"/>
<line class="st1" x1="146" y1="194.3" x2="129.1" y2="273"/>
<line class="st1" x1="171.8" y1="194.3" x2="182.3" y2="244.9"/>
<path class="st0" d="M276,481.9c5,3.1,11,4.1,16,5.1c58,5,115,3,172,1c9-3,17-10,21-18c2-5,3-10,4-15c1-26,1-51-1-77
	c-1-12-5-22-12-32c-24-37-44-72-65.8-107"/>
<path class="st0" d="M332.4,239c-13.1,20-26.2,40-39.4,60c-3.7,5.7-7.5,11.4-11.2,17.1"/>
<path class="st0" d="M423.5,239H321.3c-9.7,0-17.6-7.9-17.6-17.6v0c0-9.7,7.9-17.6,17.6-17.6h102.2c9.7,0,17.6,7.9,17.6,17.6v0
	C441.1,231.1,433.2,239,423.5,239z"/>
<path class="st0" d="M331.8,203.9l-21.7-51.1c0,0-7.3-20.4,12.1-21.7c19.5-1.3,79,0,79,0s34.1-2.4,23.7,18S406,203.9,406,203.9"/>
<line class="st1" x1="388.1" y1="130.9" x2="376.2" y2="168.6"/>
<line class="st1" x1="360.3" y1="239" x2="345.9" y2="305.7"/>
<line class="st1" x1="382.2" y1="239" x2="391" y2="281.9"/>
</svg>
