<?xml version="1.0" encoding="utf-8"?>
<!-- Generator: Adobe Illustrator 23.1.0, SVG Export Plug-In . SVG Version: 6.00 Build 0)  -->
<svg version="1.1" id="Capa_1" xmlns="http://www.w3.org/2000/svg" xmlns:xlink="http://www.w3.org/1999/xlink" x="0px" y="0px"
	 viewBox="0 0 512 512" style="enable-background:new 0 0 512 512;" xml:space="preserve">
<style type="text/css">
	.st0{fill:none;stroke:#000000;stroke-width:25;stroke-miterlimit:10;}
	.st1{fill:none;stroke:#000000;stroke-width:20;stroke-miterlimit:10;}
</style>
<path class="st0" d="M454.4,139.7H57.6c-12.6,0-22.9-10.3-22.9-22.9v-9.6c0-12.6,10.3-22.9,22.9-22.9h396.9
	c12.6,0,22.9,10.3,22.9,22.9v9.6C477.3,129.4,467,139.7,454.4,139.7z"/>
<path class="st0" d="M373.1,479.2H138.9c-13.9,0-25.3-11.4-25.3-25.3v-314c0-0.1,0.1-0.2,0.2-0.2h284.3c0.1,0,0.2,0.1,0.2,0.2v314
	C398.4,467.8,387,479.2,373.1,479.2z"/>
<path class="st1" d="M185.8,406.8H185c-2,0-3.6-1.6-3.6-3.6V203.6c0-2,1.6-3.6,3.6-3.6h0.8c2,0,3.6,1.6,3.6,3.6v199.6
	C189.3,405.2,187.7,406.8,185.8,406.8z"/>
<path class="st1" d="M256.4,406.8h-0.8c-2,0-3.6-1.6-3.6-3.6V203.6c0-2,1.6-3.6,3.6-3.6h0.8c2,0,3.6,1.6,3.6,3.6v199.6
	C260,405.2,258.3,406.8,256.4,406.8z"/>
<path class="st1" d="M323.6,406.8h-0.8c-2,0-3.6-1.6-3.6-3.6V203.6c0-2,1.6-3.6,3.6-3.6h0.8c2,0,3.6,1.6,3.6,3.6v199.6
	C327.2,405.2,325.6,406.8,323.6,406.8z"/>
<path class="st0" d="M311.2,32.8H193.4c-6.6,0-12,5.4-12,12v27c0,6.6,5.4,12,12,12h117.8c6.6,0,12-5.4,12-12v-27
	C323.2,38.2,317.8,32.8,311.2,32.8z"/>
</svg>
